HIERARCHY
ROOT Hips
{
	OFFSET -3.958830 18.904000 13.208200
	CHANNELS 6 Xposition Yposition Zposition Zrotation Yrotation Xrotation 
	JOINT LHipJoint
	{
		OFFSET 0.000000 0.000000 0.000000
		CHANNELS 3 Zrotation Yrotation Xrotation
		JOINT LeftUpLeg
		{
			OFFSET 1.800000 -1.400000 0.085000
			CHANNELS 3 Zrotation Yrotation Xrotation
			JOINT LeftLeg
			{
				OFFSET 2.215000 -6.000000 0.000000
				CHANNELS 3 Zrotation Yrotation Xrotation
				JOINT LeftFoot
				{
					OFFSET 2.500000 -6.900000 0.000000
					CHANNELS 3 Zrotation Yrotation Xrotation
					JOINT LeftToeBase
					{
						OFFSET 0.200000 -0.500000 1.950000
						CHANNELS 3 Zrotation Yrotation Xrotation
						End Site
						{
							OFFSET 0.000000 0.000000 0.000000
						}
					}
				}
			}
		}
	}
	JOINT RHipJoint
	{
		OFFSET 0.000000 0.000000 0.000000
		CHANNELS 3 Zrotation Yrotation Xrotation
		JOINT RightUpLeg
		{
			OFFSET -1.800000 -1.400000 0.085000
			CHANNELS 3 Zrotation Yrotation Xrotation
			JOINT RightLeg
			{
				OFFSET -2.215000 -6.000000 0.000000
				CHANNELS 3 Zrotation Yrotation Xrotation
				JOINT RightFoot
				{
					OFFSET -2.500000 -6.900000 0.000000
					CHANNELS 3 Zrotation Yrotation Xrotation
					JOINT RightToeBase
					{
						OFFSET -0.200000 -0.500000 1.950000
						CHANNELS 3 Zrotation Yrotation Xrotation
						End Site
						{
							OFFSET 0.000000 0.000000 0.000000
						}
					}
				}
			}
		}
	}
	JOINT LowerBack
	{
		OFFSET 0.000000 0.000000 0.000000
		CHANNELS 3 Zrotation Yrotation Xrotation
		JOINT Spine
		{
			OFFSET -0.087000 1.940000 -0.288900
			CHANNELS 3 Zrotation Yrotation Xrotation
			JOINT Spine1
			{
				OFFSET 0.000000 1.950000 0.060000
				CHANNELS 3 Zrotation Yrotation Xrotation
				JOINT Neck
				{
					OFFSET 0.000000 0.000000 0.000000
					CHANNELS 3 Zrotation Yrotation Xrotation
					JOINT Neck1
					{
						OFFSET 0.000000 1.600000 0.340000
						CHANNELS 3 Zrotation Yrotation Xrotation
						JOINT Head
						{
							OFFSET 0.000000 1.667000 -0.240000
							CHANNELS 3 Zrotation Yrotation Xrotation
							End Site
							{
								OFFSET 0.000000 0.000000 0.000000
							}
						}
					}
				}
				JOINT LeftShoulder
				{
					OFFSET 0.000000 0.000000 0.000000
					CHANNELS 3 Zrotation Yrotation Xrotation
					JOINT LeftArm
					{
						OFFSET 2.700000 1.550000 -0.730000
						CHANNELS 3 Zrotation Yrotation Xrotation
						JOINT LeftForeArm
						{
							OFFSET 5.450000 0.000000 0.000000
							CHANNELS 3 Zrotation Yrotation Xrotation
							JOINT LeftHand
							{
								OFFSET 3.450000 0.000000 0.000000
								CHANNELS 3 Zrotation Yrotation Xrotation
								JOINT LeftHandIndex1
								{
									OFFSET 0.750000 0.000000 0.000000
									CHANNELS 3 Zrotation Yrotation Xrotation
									End Site
									{
										OFFSET 0.000000 0.000000 0.000000
									}
								}
							}
						}
					}
				}
				JOINT RightShoulder
				{
					OFFSET 0.000000 0.000000 0.000000
					CHANNELS 3 Zrotation Yrotation Xrotation
					JOINT RightArm
					{
						OFFSET -2.700000 1.550000 -0.730000
						CHANNELS 3 Zrotation Yrotation Xrotation
						JOINT RightForeArm
						{
							OFFSET -5.450000 0.000000 0.000000
							CHANNELS 3 Zrotation Yrotation Xrotation
							JOINT RightHand
							{
								OFFSET -3.450000 0.000000 0.000000
								CHANNELS 3 Zrotation Yrotation Xrotation
								JOINT RightHandIndex1
								{
									OFFSET -0.750000 0.000000 0.000000
									CHANNELS 3 Zrotation Yrotation Xrotation
									End Site
									{
										OFFSET 0.000000 0.000000 0.000000
									}
								}
							}
						}
					}
				}
			}
		}
	}
}
MOTION
Frames: 8
Frame Time: 0.016667
-0.446140 17.002730 -3.425340 16.893391 -72.870822 -18.637077 -15.016603 14.379543 3.368047 8.161041 -3.451397 -6.178377 -5.385371 9.898180 36.307863 0.199186 7.085987 2.079165 0.152750 -0.167290 0.145020 17.800489 -11.735230 3.729505 2.847466 1.187266 -10.645477 0.265210 -3.406354 10.602929 -0.477849 -2.320352 3.695856 -0.257690 -0.007180 0.070260 -4.320121 -1.030740 -8.051442 -2.624314 -5.092482 18.676453 -4.642352 -8.771148 -27.519879 3.258131 -3.525245 -16.877193 -20.487112 15.992346 73.410659 7.819320 2.373140 -7.048150 -6.128971 10.217100 1.899878 -25.249435 13.283302 -0.863484 37.661957 -47.458528 -9.527313 -3.182746 2.325748 1.122580 -0.342070 0.422340 0.171810 2.181392 -8.833957 12.551221 39.081379 -37.395237 -10.078078 137.448133 71.108446 117.774137 1.928234 -0.794478 -0.282390 0.332190 0.045870 -0.195530 
-0.449750 17.015780 -3.461390 25.720689 -75.321606 -28.510855 -15.157632 14.336890 3.479245 7.112852 -3.502500 -5.945635 -6.698308 10.569840 36.775583 0.249742 7.334182 2.002749 0.152040 -0.167760 0.165390 17.675882 -11.724542 3.606176 1.436348 0.879906 -9.359686 -0.511776 -3.353530 10.382133 -0.497813 -2.415071 3.665620 -0.248240 -0.005770 0.065200 -4.432227 -0.575655 -8.000610 -5.572605 -4.316262 19.772720 -3.374255 -8.894545 -26.463112 2.737437 -3.123006 -16.767172 -19.890598 16.366967 73.437266 7.265190 4.062290 -7.610370 -5.961696 8.829619 2.080639 -24.761088 10.823923 -0.627784 39.087497 -45.936864 -9.806369 -3.196203 2.287451 1.129370 -0.333460 0.420980 0.161650 3.195548 -8.491246 12.272045 41.351086 -35.614176 -10.694024 138.122284 71.311755 118.552163 1.896993 -0.731556 -0.300460 0.344920 0.048200 -0.212810 
-0.442630 17.071710 -3.513780 70.824362 -82.654816 -76.399670 -14.846037 14.543298 3.618184 5.879831 -2.638086 -4.443371 -8.867574 12.123763 37.192795 0.345246 7.820647 1.823712 0.218420 -0.103530 0.254220 18.046343 -11.416722 3.400573 0.651644 0.542732 -6.701981 -2.542344 -3.126311 10.855210 -0.583670 -2.523655 3.598702 -0.203420 -0.065660 0.073060 -4.357592 0.639955 -7.981647 -6.883708 -2.185974 21.911533 -3.189512 -8.146361 -25.272251 1.032498 -2.818872 -16.720989 -19.657789 18.449010 75.098606 7.539460 7.771500 -12.277320 -6.951986 6.419451 2.795958 -21.614136 10.762811 -0.443174 45.913035 -43.527592 -11.640712 -3.168043 2.233520 1.218580 -0.384140 0.483120 0.144280 7.237321 -7.009231 11.445821 43.133886 -31.029736 -10.061328 143.701777 70.810705 125.079105 1.894382 -0.782485 -0.318850 0.359350 0.028180 -0.261630 
-0.312490 17.089600 -3.513340 137.172024 -81.180101 -150.962387 -14.838589 13.507379 3.308940 7.428810 -2.559108 -0.471896 -10.433034 13.722041 39.697206 0.497834 8.635374 1.546407 0.310810 0.016270 0.347390 18.241727 -11.871472 3.340193 -0.128605 -0.905079 0.831847 -3.233649 -3.952803 10.294247 -0.872153 -3.418686 3.292961 -0.120000 -0.133390 0.077510 -4.349149 -0.369738 -7.903476 -7.001700 -0.820703 30.029899 -2.779203 -4.744766 -14.285416 -1.008870 -3.329439 -16.662588 -21.168945 19.477155 71.968398 5.569050 9.835480 -21.616400 -13.736116 -3.344979 3.367493 -17.806108 5.405343 -4.252297 55.111241 -33.165691 -13.965748 -3.168704 2.236670 1.277870 -0.436340 0.548650 0.135410 17.749940 2.937623 12.386571 45.879555 -25.201680 -15.199347 173.466353 70.662127 158.384982 1.897129 -1.157457 -0.321390 0.408920 -0.001890 -0.292980 
-0.252300 17.135460 -3.456100 161.016051 -72.901360 179.353516 -15.572028 13.589468 3.192068 9.216038 -2.158026 2.234705 -12.300632 14.664875 38.788043 0.541608 9.049786 1.418282 0.380150 0.093650 0.398230 17.662585 -11.239105 3.241004 -0.505163 -1.823246 7.050715 -3.348432 -4.508248 9.962107 -1.075918 -4.025255 3.056572 -0.055420 -0.168950 0.114670 -4.519255 -1.566920 -7.968869 -6.601941 -0.230284 34.095201 -2.777087 -1.503608 -0.807648 -2.172978 -4.811176 -17.143120 -23.855331 20.362501 64.189659 1.475920 11.048650 -28.784600 -16.772030 -12.115177 4.694776 -12.124780 3.157651 -8.709972 58.185021 -29.425266 -16.263681 -3.232274 2.354332 1.281610 -0.447110 0.565000 0.130560 22.650838 13.389230 14.189018 44.105009 -17.849129 -18.132361 -172.314115 69.362207 171.943834 1.952446 -1.265715 -0.305350 0.413930 -0.004590 -0.307760 
-0.280810 17.152270 -3.372140 172.972592 -64.423239 165.223951 -15.628286 14.102527 3.057982 11.080719 -1.514459 2.787497 -11.752615 13.534648 35.103344 0.375659 8.632110 1.589773 0.355410 0.072300 0.366210 17.680764 -10.527669 3.235210 0.627566 -2.310313 10.362076 -2.975072 -4.748314 10.533095 -1.096834 -4.342988 2.954270 -0.030840 -0.120240 0.133310 -3.785134 -3.132125 -7.887249 -4.566878 -1.023869 34.715736 -3.189002 0.001475 10.755531 -1.492846 -6.888104 -16.617729 -25.647270 19.487879 52.092519 -5.752510 10.941460 -32.680800 -17.643302 -17.558476 5.169184 -6.719876 2.008872 -12.264266 58.829310 -35.332302 -21.092020 -3.396496 2.392555 1.192700 -0.377960 0.488800 0.132160 21.386930 21.174660 15.837302 39.573748 -9.898029 -17.694231 -161.685855 65.649307 -176.096771 2.010120 -1.372083 -0.317540 0.424000 0.028060 -0.293970 
-0.359400 17.159120 -3.318540 177.652348 -55.507988 161.036056 -15.572350 14.270616 2.852354 11.026696 -0.814470 1.444367 -9.663445 12.033058 32.618520 0.204877 7.961367 1.840398 0.335830 0.085800 0.292400 17.773663 -10.429683 3.174236 1.122889 -2.401804 10.411007 -2.495221 -4.872716 12.370321 -1.051620 -4.474272 2.938955 0.000170 -0.025080 0.138270 -3.684713 -3.522831 -7.724522 -1.715059 -1.818993 33.113602 -3.898254 0.041604 16.003807 -1.251000 -8.893067 -16.997380 -28.681936 21.214519 43.037988 -7.703800 11.839400 -32.317220 -15.490117 -19.615538 6.250807 -8.476632 1.555813 -14.404919 64.454161 -36.739381 -25.670238 -3.512211 2.430572 1.091860 -0.300060 0.419940 0.171990 18.572215 24.746920 16.338402 35.936891 -4.111856 -15.351038 -161.156421 61.588973 -175.080254 2.027052 -1.400830 -0.320000 0.454170 0.044910 -0.243550 
-0.470340 17.170500 -3.283150 179.587644 -45.878626 160.050490 -15.481336 14.169949 2.573917 9.671321 -0.289806 -0.144651 -6.755750 10.508399 31.533724 -0.002683 7.315436 2.041073 0.376160 0.163120 0.285890 17.921660 -10.563576 3.098637 0.744958 -2.460106 10.153276 -1.704112 -5.040133 13.000646 -1.028080 -4.623914 2.875883 0.078230 0.021580 0.169560 -3.934586 -3.176568 -7.534957 2.610178 -1.835588 28.957330 -5.760873 0.972432 21.324516 -0.916463 -9.854819 -16.717554 -29.805453 22.047851 38.309523 -9.241280 12.500960 -31.491040 -13.827812 -22.060159 6.640887 -9.660937 -3.141033 -15.771251 71.807405 -41.061443 -33.396879 -3.622303 2.392638 1.001430 -0.222580 0.379240 0.188820 15.886190 27.671356 16.466727 31.960803 2.003302 -13.191129 -159.595870 59.733693 -171.905377 1.988184 -1.452778 -0.301520 0.454050 0.049580 -0.224170 
